<svg width="15" height="11" viewBox="0 0 15 11" fill="none" xmlns="http://www.w3.org/2000/svg">
<path d="M4.50001 8.49999L1.58334 5.58332C1.50707 5.50612 1.41624 5.44483 1.3161 5.40299C1.21597 5.36116 1.10853 5.33962 1.00001 5.33962C0.891486 5.33962 0.784044 5.36116 0.68391 5.40299C0.583776 5.44483 0.492942 5.50612 0.416673 5.58332C0.339473 5.65959 0.27818 5.75042 0.236347 5.85056C0.194515 5.95069 0.172974 6.05813 0.172974 6.16665C0.172974 6.27517 0.194515 6.38261 0.236347 6.48275C0.27818 6.58288 0.339473 6.67372 0.416673 6.74999L3.90834 10.2417C4.23334 10.5667 4.75834 10.5667 5.08334 10.2417L13.9167 1.41665C13.9939 1.34038 14.0552 1.24955 14.097 1.14942C14.1388 1.04928 14.1604 0.94184 14.1604 0.833319C14.1604 0.724798 14.1388 0.617357 14.097 0.517223C14.0552 0.417089 13.9939 0.326255 13.9167 0.249986C13.8404 0.172786 13.7496 0.111493 13.6494 0.0696603C13.5493 0.0278273 13.4419 0.00628662 13.3333 0.00628662C13.2248 0.00628662 13.1174 0.0278273 13.0172 0.0696603C12.9171 0.111493 12.8263 0.172786 12.75 0.249986L4.50001 8.49999Z" fill="#8E8FFA"/>
</svg>
