<svg width="24" height="25" viewBox="0 0 24 25" fill="none" xmlns="http://www.w3.org/2000/svg">
<path d="M15.5303 4.71995C15.6708 4.86058 15.7497 5.0512 15.7497 5.24995C15.7497 5.4487 15.6708 5.63933 15.5303 5.77995L8.81032 12.5L15.5303 19.2199C15.604 19.2886 15.6631 19.3714 15.7041 19.4634C15.7451 19.5554 15.7671 19.6547 15.7689 19.7554C15.7707 19.8561 15.7522 19.9562 15.7144 20.0495C15.6767 20.1429 15.6206 20.2278 15.5494 20.299C15.4781 20.3702 15.3933 20.4264 15.2999 20.4641C15.2065 20.5018 15.1065 20.5203 15.0058 20.5185C14.9051 20.5168 14.8058 20.4947 14.7138 20.4537C14.6218 20.4127 14.539 20.3536 14.4703 20.28L7.22032 13.03C7.07987 12.8893 7.00098 12.6987 7.00098 12.5C7.00098 12.3012 7.07987 12.1106 7.22032 11.97L14.4703 4.71995C14.6109 4.5795 14.8016 4.50061 15.0003 4.50061C15.1991 4.50061 15.3897 4.5795 15.5303 4.71995Z" fill="#F1F1F1"/>
</svg>
