<svg width="154" height="40" viewBox="0 0 154 40" fill="none" xmlns="http://www.w3.org/2000/svg">
<path d="M3.05194 9.69061L19.764 19.0297L36.2654 8.49691L19.8693 0.351532L3.05194 9.69061Z" fill="url(#paint0_linear_9_184)"/>
<path d="M19.7289 30.4403V19.0649L29.5595 12.8505V24.7877L19.7289 30.4403Z" fill="url(#paint1_linear_9_184)"/>
<path d="M19.6587 39.1825V18.9747L37.1431 7.93521V29.141L19.6587 39.1825Z" fill="url(#paint2_linear_9_184)"/>
<path d="M10.3196 25.1739V13.9038L19.764 19.0298V30.4403L10.3196 25.1739Z" fill="url(#paint3_linear_9_184)"/>
<path d="M2.94666 29.8125V9.76086L19.7991 18.8809V39.1825L2.94666 29.8125Z" fill="url(#paint4_linear_9_184)"/>
<path d="M48.8523 14.0881V11.0455H63.1875V14.0881H57.8438V28.5H54.196V14.0881H48.8523ZM80.1477 11.0455V28.5H76.9602L69.3665 17.5142H69.2386V28.5H65.5483V11.0455H68.7869L76.321 22.0227H76.4744V11.0455H80.1477ZM83.1967 28.5V11.0455H90.1854C91.4695 11.0455 92.5405 11.2358 93.3984 11.6165C94.2564 11.9972 94.9013 12.5256 95.3331 13.2017C95.7649 13.8722 95.9808 14.6449 95.9808 15.5199C95.9808 16.2017 95.8445 16.8011 95.5717 17.3182C95.299 17.8295 94.924 18.25 94.4467 18.5795C93.9751 18.9034 93.4354 19.1335 92.8274 19.2699V19.4403C93.4922 19.4687 94.1143 19.6562 94.6939 20.0028C95.2791 20.3494 95.7536 20.8352 96.1172 21.4602C96.4808 22.0795 96.6626 22.8182 96.6626 23.6761C96.6626 24.6023 96.4325 25.429 95.9723 26.1562C95.5178 26.8778 94.8445 27.4489 93.9524 27.8693C93.0604 28.2898 91.9609 28.5 90.6541 28.5H83.1967ZM86.8871 25.483H89.8956C90.924 25.483 91.674 25.2869 92.1456 24.8949C92.6172 24.4972 92.853 23.9687 92.853 23.3097C92.853 22.8267 92.7365 22.4006 92.5036 22.0312C92.2706 21.6619 91.9382 21.3722 91.5064 21.1619C91.0803 20.9517 90.5717 20.8466 89.9808 20.8466H86.8871V25.483ZM86.8871 18.3494H89.6229C90.1286 18.3494 90.5774 18.2614 90.9695 18.0852C91.3672 17.9034 91.6797 17.6477 91.907 17.3182C92.1399 16.9886 92.2564 16.5938 92.2564 16.1335C92.2564 15.5028 92.032 14.9943 91.5831 14.608C91.1399 14.2216 90.5092 14.0284 89.6911 14.0284H86.8871V18.3494ZM99.0639 11.0455H103.615L108.422 22.7727H108.626L113.433 11.0455H117.984V28.5H114.405V17.1392H114.26L109.743 28.4148H107.305L102.788 17.0966H102.643V28.5H99.0639V11.0455ZM124.033 28.5H120.079L126.104 11.0455H130.86L136.877 28.5H132.923L128.55 15.0341H128.414L124.033 28.5ZM123.786 21.6392H133.127V24.5199H123.786V21.6392ZM138.978 28.5V11.0455H145.864C147.183 11.0455 148.308 11.2812 149.239 11.7528C150.177 12.2187 150.89 12.8807 151.379 13.7386C151.873 14.5909 152.12 15.5937 152.12 16.7472C152.12 17.9062 151.87 18.9034 151.37 19.7386C150.87 20.5682 150.146 21.2045 149.197 21.6477C148.254 22.0909 147.112 22.3125 145.771 22.3125H141.16V19.3466H145.174C145.879 19.3466 146.464 19.25 146.93 19.0568C147.396 18.8636 147.742 18.5739 147.969 18.1875C148.202 17.8011 148.319 17.321 148.319 16.7472C148.319 16.1676 148.202 15.679 147.969 15.2812C147.742 14.8835 147.393 14.5824 146.921 14.3778C146.455 14.1676 145.867 14.0625 145.157 14.0625H142.668V28.5H138.978ZM148.404 20.5568L152.742 28.5H148.668L144.424 20.5568H148.404Z" fill="#8E8FFA"/>
<defs>
<linearGradient id="paint0_linear_9_184" x1="24.9582" y1="1.65772" x2="25.9902" y2="19.1569" gradientUnits="userSpaceOnUse">
<stop stop-color="#190482" stop-opacity="0"/>
<stop offset="0.484" stop-color="#7752FE" stop-opacity="0.67"/>
<stop offset="0.709" stop-color="#8E8FFA" stop-opacity="0.86"/>
<stop offset="0.929" stop-color="#55E8BF"/>
</linearGradient>
<linearGradient id="paint1_linear_9_184" x1="26.2592" y1="14.1847" x2="21.6077" y2="30.9573" gradientUnits="userSpaceOnUse">
<stop stop-color="#190482" stop-opacity="0"/>
<stop offset="0.484" stop-color="#7752FE" stop-opacity="0.67"/>
<stop offset="0.709" stop-color="#8E8FFA" stop-opacity="0.86"/>
<stop offset="0.929" stop-color="#55E8BF"/>
</linearGradient>
<linearGradient id="paint2_linear_9_184" x1="36.2815" y1="10.1466" x2="21.3647" y2="39.1483" gradientUnits="userSpaceOnUse">
<stop stop-color="#190482" stop-opacity="0"/>
<stop offset="0.484" stop-color="#7752FE" stop-opacity="0.55"/>
<stop offset="0.709" stop-color="#8E8FFA" stop-opacity="0.63"/>
<stop offset="0.929" stop-color="#55E8BF"/>
</linearGradient>
<linearGradient id="paint3_linear_9_184" x1="16.5934" y1="15.1581" x2="18.3724" y2="30.4876" gradientUnits="userSpaceOnUse">
<stop stop-color="#190482" stop-opacity="0"/>
<stop offset="0.484" stop-color="#7752FE" stop-opacity="0.67"/>
<stop offset="0.709" stop-color="#8E8FFA" stop-opacity="0.86"/>
<stop offset="0.929" stop-color="#55E8BF"/>
</linearGradient>
<linearGradient id="paint4_linear_9_184" x1="5.3151" y1="11.6563" x2="19.0737" y2="39.2891" gradientUnits="userSpaceOnUse">
<stop stop-color="#190482" stop-opacity="0"/>
<stop offset="0.484" stop-color="#7752FE" stop-opacity="0.67"/>
<stop offset="0.709" stop-color="#8E8FFA" stop-opacity="0.86"/>
<stop offset="0.929" stop-color="#55E8BF"/>
</linearGradient>
</defs>
</svg>
